<svg aria-hidden="true" style="position: absolute; width: 0; height: 0; overflow: hidden;" version="1.1" xmlns="http://www.w3.org/2000/svg" xmlns:xlink="http://www.w3.org/1999/xlink">
<defs>
<symbol id="icon-facebook" viewBox="0 0 32 32">
<path d="M19 6h5v-6h-5c-3.86 0-7 3.14-7 7v3h-4v6h4v16h6v-16h5l1-6h-6v-3c0-0.542 0.458-1 1-1z"></path>
</symbol>
<symbol id="icon-instagram" viewBox="0 0 32 32">
<path d="M16 2.881c4.275 0 4.781 0.019 6.462 0.094 1.563 0.069 2.406 0.331 2.969 0.55 0.744 0.288 1.281 0.638 1.837 1.194 0.563 0.563 0.906 1.094 1.2 1.838 0.219 0.563 0.481 1.412 0.55 2.969 0.075 1.688 0.094 2.194 0.094 6.463s-0.019 4.781-0.094 6.463c-0.069 1.563-0.331 2.406-0.55 2.969-0.288 0.744-0.637 1.281-1.194 1.837-0.563 0.563-1.094 0.906-1.837 1.2-0.563 0.219-1.413 0.481-2.969 0.55-1.688 0.075-2.194 0.094-6.463 0.094s-4.781-0.019-6.463-0.094c-1.563-0.069-2.406-0.331-2.969-0.55-0.744-0.288-1.281-0.637-1.838-1.194-0.563-0.563-0.906-1.094-1.2-1.837-0.219-0.563-0.481-1.413-0.55-2.969-0.075-1.688-0.094-2.194-0.094-6.463s0.019-4.781 0.094-6.463c0.069-1.563 0.331-2.406 0.55-2.969 0.288-0.744 0.638-1.281 1.194-1.838 0.563-0.563 1.094-0.906 1.838-1.2 0.563-0.219 1.412-0.481 2.969-0.55 1.681-0.075 2.188-0.094 6.463-0.094zM16 0c-4.344 0-4.887 0.019-6.594 0.094-1.7 0.075-2.869 0.35-3.881 0.744-1.056 0.412-1.95 0.956-2.837 1.85-0.894 0.888-1.438 1.781-1.85 2.831-0.394 1.019-0.669 2.181-0.744 3.881-0.075 1.713-0.094 2.256-0.094 6.6s0.019 4.887 0.094 6.594c0.075 1.7 0.35 2.869 0.744 3.881 0.413 1.056 0.956 1.95 1.85 2.837 0.887 0.887 1.781 1.438 2.831 1.844 1.019 0.394 2.181 0.669 3.881 0.744 1.706 0.075 2.25 0.094 6.594 0.094s4.888-0.019 6.594-0.094c1.7-0.075 2.869-0.35 3.881-0.744 1.050-0.406 1.944-0.956 2.831-1.844s1.438-1.781 1.844-2.831c0.394-1.019 0.669-2.181 0.744-3.881 0.075-1.706 0.094-2.25 0.094-6.594s-0.019-4.887-0.094-6.594c-0.075-1.7-0.35-2.869-0.744-3.881-0.394-1.063-0.938-1.956-1.831-2.844-0.887-0.887-1.781-1.438-2.831-1.844-1.019-0.394-2.181-0.669-3.881-0.744-1.712-0.081-2.256-0.1-6.6-0.1v0z"></path>
<path d="M16 7.781c-4.537 0-8.219 3.681-8.219 8.219s3.681 8.219 8.219 8.219 8.219-3.681 8.219-8.219c0-4.537-3.681-8.219-8.219-8.219zM16 21.331c-2.944 0-5.331-2.387-5.331-5.331s2.387-5.331 5.331-5.331c2.944 0 5.331 2.387 5.331 5.331s-2.387 5.331-5.331 5.331z"></path>
<path d="M26.462 7.456c0 1.060-0.859 1.919-1.919 1.919s-1.919-0.859-1.919-1.919c0-1.060 0.859-1.919 1.919-1.919s1.919 0.859 1.919 1.919z"></path>
</symbol>
<symbol id="icon-twitter" viewBox="0 0 32 32">
<path d="M32 7.075c-1.175 0.525-2.444 0.875-3.769 1.031 1.356-0.813 2.394-2.1 2.887-3.631-1.269 0.75-2.675 1.3-4.169 1.594-1.2-1.275-2.906-2.069-4.794-2.069-3.625 0-6.563 2.938-6.563 6.563 0 0.512 0.056 1.012 0.169 1.494-5.456-0.275-10.294-2.888-13.531-6.862-0.563 0.969-0.887 2.1-0.887 3.3 0 2.275 1.156 4.287 2.919 5.463-1.075-0.031-2.087-0.331-2.975-0.819 0 0.025 0 0.056 0 0.081 0 3.181 2.263 5.838 5.269 6.437-0.55 0.15-1.131 0.231-1.731 0.231-0.425 0-0.831-0.044-1.237-0.119 0.838 2.606 3.263 4.506 6.131 4.563-2.25 1.762-5.075 2.813-8.156 2.813-0.531 0-1.050-0.031-1.569-0.094 2.913 1.869 6.362 2.95 10.069 2.95 12.075 0 18.681-10.006 18.681-18.681 0-0.287-0.006-0.569-0.019-0.85 1.281-0.919 2.394-2.075 3.275-3.394z"></path>
</symbol>
<symbol id="icon-youtube" viewBox="0 0 32 32">
<path d="M31.681 9.6c0 0-0.313-2.206-1.275-3.175-1.219-1.275-2.581-1.281-3.206-1.356-4.475-0.325-11.194-0.325-11.194-0.325h-0.012c0 0-6.719 0-11.194 0.325-0.625 0.075-1.987 0.081-3.206 1.356-0.963 0.969-1.269 3.175-1.269 3.175s-0.319 2.588-0.319 5.181v2.425c0 2.587 0.319 5.181 0.319 5.181s0.313 2.206 1.269 3.175c1.219 1.275 2.819 1.231 3.531 1.369 2.563 0.244 10.881 0.319 10.881 0.319s6.725-0.012 11.2-0.331c0.625-0.075 1.988-0.081 3.206-1.356 0.962-0.969 1.275-3.175 1.275-3.175s0.319-2.587 0.319-5.181v-2.425c-0.006-2.588-0.325-5.181-0.325-5.181zM12.694 20.15v-8.994l8.644 4.513-8.644 4.481z"></path>
</symbol>
<symbol id="icon-cart" viewBox="0 0 24 32">
<path d="M20.336 8.858h-1.178v-1.7c-0-3.947-3.211-7.158-7.158-7.158s-7.158 3.211-7.158 7.158v1.7h-1.178c-1.916 0-3.474 1.559-3.474 3.475v16.193c0 1.916 1.559 3.475 3.474 3.475h16.673c1.916 0 3.475-1.558 3.475-3.475v-16.193c0-1.916-1.559-3.474-3.474-3.474zM7.108 7.158c0-2.697 2.194-4.891 4.892-4.891s4.891 2.194 4.891 4.891v1.7h-9.783v-1.7zM21.544 28.525c0 0.667-0.542 1.208-1.208 1.208h-16.673c-0.666 0-1.208-0.542-1.208-1.208v-16.193c0-0.666 0.542-1.208 1.208-1.208h1.178v1.589c-0.364 0.317-0.599 0.779-0.599 1.301 0 0.957 0.776 1.733 1.733 1.733s1.733-0.776 1.733-1.733c0-0.521-0.235-0.983-0.599-1.301v-1.589h9.783v1.589c-0.364 0.317-0.599 0.779-0.599 1.301 0 0.957 0.776 1.733 1.733 1.733s1.733-0.776 1.733-1.733c0-0.521-0.235-0.983-0.599-1.301v-1.589h1.178c0.666 0 1.208 0.542 1.208 1.208v16.193h0z"></path>
</symbol>
<symbol id="icon-guarantee" viewBox="0 0 36 32">
<path fill="#454545" style="fill: var(--color2, #454545); stroke: var(--color2, #454545)" stroke="#454545" stroke-linejoin="miter" stroke-linecap="butt" stroke-miterlimit="4" stroke-width="0.4324" d="M20.597 11.363c-0.11-0.11-0.262-0.173-0.418-0.173s-0.308 0.063-0.418 0.173c-0.11 0.11-0.173 0.262-0.173 0.418s0.063 0.308 0.173 0.418c0.11 0.11 0.262 0.173 0.418 0.173s0.308-0.063 0.418-0.173c0.11-0.11 0.173-0.262 0.173-0.418s-0.063-0.308-0.173-0.418z"></path>
<path fill="#454545" style="fill: var(--color2, #454545); stroke: var(--color2, #454545)" stroke="#454545" stroke-linejoin="miter" stroke-linecap="butt" stroke-miterlimit="4" stroke-width="0.4324" d="M18.77 20.013c-0.847 0-1.537-0.601-1.537-1.34s0.689-1.34 1.537-1.34c0.847 0 1.537 0.601 1.537 1.34 0 0.326 0.265 0.591 0.591 0.591s0.591-0.265 0.591-0.591c0-1.202-0.912-2.21-2.128-2.462v-0.059c0-0.326-0.265-0.591-0.591-0.591s-0.591 0.265-0.591 0.591v0.059c-1.216 0.251-2.128 1.259-2.128 2.462 0 1.391 1.22 2.522 2.719 2.522 0.847 0 1.537 0.601 1.537 1.34s-0.689 1.34-1.537 1.34c-0.847 0-1.537-0.601-1.537-1.34 0-0.326-0.265-0.591-0.591-0.591s-0.591 0.265-0.591 0.591c0 1.203 0.912 2.21 2.128 2.462v0.15c0 0.326 0.265 0.591 0.591 0.591s0.591-0.265 0.591-0.591v-0.15c1.216-0.251 2.128-1.259 2.128-2.462 0-1.391-1.22-2.522-2.719-2.522z"></path>
<path fill="#454545" style="fill: var(--color2, #454545); stroke: var(--color2, #454545)" stroke="#454545" stroke-linejoin="miter" stroke-linecap="butt" stroke-miterlimit="4" stroke-width="0.4324" d="M26.765 11.794l-3.498-4.373 1.752-3.44c0.385-0.755 0.236-1.619-0.379-2.202s-1.486-0.685-2.219-0.261c-0.244 0.141-0.555 0.117-0.773-0.061-1.671-1.362-4.098-1.364-5.775-0.001-0.219 0.178-0.53 0.203-0.774 0.061-0.733-0.424-1.604-0.322-2.219 0.261s-0.764 1.447-0.379 2.202l1.758 3.451-2.037 2.547c-0.204 0.255-0.163 0.627 0.092 0.831s0.627 0.163 0.831-0.092l2.1-2.626h4.342v1.659c0 0.326 0.265 0.591 0.591 0.591s0.591-0.265 0.591-0.591v-1.659h0.902v5.906c0 0.326 0.265 0.591 0.591 0.591s0.591-0.265 0.591-0.591v-5.2l2.987 3.735c2.372 2.966 3.679 6.691 3.679 10.489 0 3.582-2.914 6.496-6.496 6.496h-8.514c-2.141 0-4.093-1.021-5.311-2.754 2.172-1.146 3.596-2.31 4.426-3.606 0.907-1.416 1.011-2.818 1.046-4.373 0-0.005 0-0.009 0-0.014v-4.913c0-0.231-0.134-0.441-0.344-0.537l-6.529-3.003c-0.157-0.072-0.337-0.072-0.494 0l-6.529 3.003c-0.21 0.097-0.344 0.306-0.344 0.537v4.913c0 0.004 0 0.009 0 0.014 0.036 1.555 0.139 2.957 1.046 4.373 0.997 1.557 2.849 2.922 5.826 4.296 0.079 0.036 0.163 0.054 0.248 0.054s0.169-0.018 0.248-0.054c0.113-0.052 0.223-0.104 0.333-0.156 0.654 0.974 1.527 1.792 2.544 2.379 1.161 0.67 2.486 1.024 3.833 1.024h8.514c4.234 0 7.678-3.444 7.678-7.678 0-4.065-1.398-8.053-3.938-11.228zM22.2 6.91h-6.88l-1.765-3.465c-0.215-0.423 0.052-0.724 0.139-0.807s0.403-0.333 0.813-0.096c0.666 0.386 1.515 0.319 2.117-0.171 1.24-1.008 3.039-1.007 4.278 0.004 0.597 0.486 1.446 0.553 2.112 0.167 0.41-0.238 0.726 0.013 0.813 0.096s0.354 0.384 0.139 0.807l-1.765 3.465zM7.553 26.264c-5.824-2.747-5.879-4.953-5.938-7.5v-4.527l5.938-2.731 5.938 2.731v4.527c-0.058 2.547-0.114 4.752-5.938 7.5z"></path>
<path fill="#454545" style="fill: var(--color2, #454545); stroke: var(--color2, #454545)" stroke="#454545" stroke-linejoin="miter" stroke-linecap="butt" stroke-miterlimit="4" stroke-width="0.4324" d="M11.327 16.916c-0.231-0.231-0.605-0.231-0.836 0l-3.313 3.313-1.403-1.403c-0.231-0.231-0.605-0.231-0.836 0s-0.231 0.605 0 0.836l1.821 1.821c0.115 0.115 0.267 0.173 0.418 0.173s0.303-0.058 0.418-0.173l3.731-3.731c0.231-0.231 0.231-0.605 0-0.836z"></path>
</symbol>
<symbol id="icon-search" viewBox="0 0 32 32">
<path d="M31.609 29.724l-9.1-9.1c1.763-2.177 2.824-4.944 2.824-7.957 0-6.984-5.683-12.667-12.667-12.667s-12.666 5.683-12.666 12.666 5.683 12.667 12.667 12.667c3.013 0 5.78-1.061 7.957-2.824l9.1 9.1c0.26 0.26 0.601 0.391 0.943 0.391s0.683-0.131 0.943-0.391c0.521-0.521 0.521-1.364 0-1.885zM12.667 22.667c-5.515 0-10-4.485-10-10s4.485-10 10-10c5.515 0 10 4.485 10 10s-4.485 10-10 10z"></path>
</symbol>
<symbol id="icon-secured" viewBox="0 0 23 32" fill="#454545">
<path d="M22.346 9.449h-3.183v-1.927c0-4.148-3.374-7.522-7.522-7.522s-7.522 3.374-7.522 7.522v1.927h-3.183c-0.518 0-0.938 0.42-0.938 0.938v20.676c0 0.518 0.42 0.938 0.938 0.938h21.409c0.518 0 0.938-0.42 0.938-0.938v-20.676c0-0.518-0.42-0.938-0.938-0.938zM5.995 7.522c0-3.114 2.533-5.647 5.647-5.647s5.647 2.533 5.647 5.647v1.927h-1.771v-2.038c0-2.137-1.739-3.876-3.876-3.876s-3.876 1.739-3.876 3.876v2.038h-1.771v-1.927zM13.643 9.449h-4.001v-2.038c0-1.103 0.898-2.001 2.001-2.001s2.001 0.897 2.001 2.001v2.038zM3.662 21.999h-1.787v-2.548h1.787v2.548zM1.875 23.874h1.787v2.548h-1.787v-2.548zM3.662 17.575h-1.787v-2.548h1.787v2.548zM21.409 30.125h-19.534v-1.828h2.725c0.518 0 0.938-0.42 0.938-0.938v-13.27c0-0.518-0.42-0.937-0.938-0.937h-2.725v-1.828h19.534v18.801z"></path>
<path d="M13.055 19.329c-0.863-0.305-1.817-0.673-2.353-1.094-0.172-0.135-0.247-0.442-0.186-0.765 0.062-0.33 0.284-0.73 0.72-0.861 0.895-0.27 1.508 0.088 1.731 0.255 0.415 0.31 1.002 0.225 1.312-0.189s0.225-1.002-0.189-1.312c-0.2-0.15-0.703-0.479-1.424-0.636v-0.4c0-0.518-0.42-0.938-0.938-0.938s-0.938 0.42-0.938 0.938v0.461c-0.032 0.009-0.063 0.017-0.095 0.027-1.038 0.313-1.813 1.198-2.022 2.31-0.193 1.023 0.141 2.014 0.872 2.587 0.604 0.474 1.44 0.875 2.885 1.386 0.974 0.344 0.953 1.133 0.898 1.456-0.11 0.654-0.66 1.36-1.607 1.366-0.924 0.006-1.212-0.040-1.923-0.504-0.433-0.283-1.014-0.162-1.298 0.271s-0.162 1.014 0.271 1.298c0.765 0.501 1.329 0.702 2.018 0.774v0.449c0 0.518 0.42 0.938 0.938 0.938s0.938-0.42 0.938-0.938v-0.538c0.527-0.143 1.007-0.407 1.416-0.783 0.577-0.53 0.966-1.248 1.096-2.021 0.264-1.572-0.589-2.993-2.123-3.535z"></path>
</symbol>
<symbol id="icon-worldwide-shipping" viewBox="0 0 32 32" fill="#454545">
<path stroke-linejoin="miter" stroke-linecap="butt" stroke-miterlimit="4" stroke-width="0.4324" d="M30.137 19.869l0.89-0.89c0.56-0.56 0.56-1.472 0-2.033-0.271-0.271-0.632-0.421-1.016-0.421-0.288 0-0.564 0.084-0.797 0.241l-0.188-0.63 0.963-0.964c0.56-0.56 0.56-1.472 0-2.032-0.516-0.516-1.329-0.556-1.892-0.121l-1.142-3.833c0.456-0.439 0.893-0.866 1.304-1.278 1.186-1.186 2.151-2.442 2.716-3.535 0.955-1.849 0.555-2.837 0.052-3.34s-1.491-0.903-3.34 0.052c-1.093 0.565-2.349 1.529-3.535 2.716-0.412 0.412-0.839 0.848-1.278 1.304l-3.833-1.142c0.434-0.563 0.395-1.376-0.121-1.892-0.56-0.56-1.472-0.56-2.032 0l-0.964 0.964-0.63-0.188c0.157-0.234 0.241-0.51 0.241-0.798 0-0.384-0.15-0.745-0.421-1.016-0.56-0.56-1.472-0.56-2.032 0l-0.89 0.89-4.536-1.351c-0.162-0.048-0.336-0.004-0.455 0.115l-1.168 1.168c-0.196 0.196-0.17 0.531 0.053 0.694l11.444 8.377c-2.58 2.909-5.066 5.822-6.821 7.903l-3.366-1.295c-0.169-0.065-0.361-0.024-0.489 0.104l-1.384 1.384c-0.179 0.179-0.179 0.469 0 0.648l6.919 6.919c0.177 0.177 0.472 0.177 0.649 0l1.384-1.384c0.128-0.128 0.169-0.32 0.104-0.489l-1.295-3.366c2.081-1.755 4.994-4.24 7.903-6.821l0.909 1.242c0.161 0.221 0.489 0.249 0.687 0.061 0.165-0.157 0.188-0.419 0.054-0.603l-0.961-1.313c1.521-1.358 3.024-2.728 4.387-4.019l4.321 14.506-0.596 0.596-5.939-8.114c-0.15-0.204-0.437-0.249-0.641-0.099s-0.249 0.437-0.099 0.641l6.255 8.546c0.164 0.224 0.498 0.249 0.694 0.053l1.168-1.168c0.119-0.119 0.163-0.294 0.115-0.455l-1.351-4.536zM17.536 2.72c0.2-0.2 0.535-0.2 0.735 0 0.203 0.203 0.203 0.532 0 0.735l-0.215 0.215-1.133-0.338 0.613-0.613zM13.73 1.682c0.203-0.203 0.532-0.203 0.735 0s0.203 0.532 0 0.735l-0.141 0.141-1.133-0.337 0.539-0.539zM7.060 2.125l0.596-0.596 14.506 4.321c-1.291 1.363-2.661 2.866-4.019 4.387l-11.083-8.112zM7.293 18.498l2.793 1.074c-0.7 0.834-1.238 1.479-1.554 1.861l-2.087-2.087 0.849-0.849zM9.182 22.085c1.599-1.929 10.050-12.067 15.618-17.635 1.105-1.105 2.31-2.034 3.308-2.549 0.749-0.387 1.75-0.739 2.271-0.218s0.168 1.522-0.218 2.271c-0.515 0.997-1.444 2.203-2.549 3.308-5.567 5.568-15.706 14.019-17.635 15.618l-0.793-0.794zM13.563 24.768l-0.849 0.849-2.087-2.087c0.382-0.317 1.027-0.854 1.861-1.554l1.074 2.793zM29.643 17.595c0.203-0.203 0.532-0.203 0.735 0s0.203 0.532 0 0.735l-0.539 0.539-0.337-1.133 0.141-0.141zM28.606 13.79c0.202-0.203 0.532-0.203 0.735 0 0.2 0.2 0.2 0.535 0 0.735l-0.613 0.613-0.337-1.133 0.215-0.215z"></path>
<path stroke-linejoin="miter" stroke-linecap="butt" stroke-miterlimit="4" stroke-width="0.4324" d="M27.976 26.919l-3.914 3.914c-0.167 0.167-0.178 0.443-0.024 0.622 0.172 0.2 0.487 0.213 0.673 0.026l3.914-3.914c0.179-0.179 0.179-0.469 0-0.649s-0.47-0.179-0.649 0z"></path>
<path stroke-linejoin="miter" stroke-linecap="butt" stroke-miterlimit="4" stroke-width="0.4324" d="M26.667 25.611c0.179-0.179 0.179-0.47 0-0.648s-0.469-0.179-0.648 0l-2.446 2.446c-0.167 0.167-0.178 0.443-0.024 0.622 0.172 0.2 0.487 0.213 0.673 0.026l2.446-2.446z"></path>
<path stroke-linejoin="miter" stroke-linecap="butt" stroke-miterlimit="4" stroke-width="0.4324" d="M25.2 23.165c0.179-0.179 0.179-0.47 0-0.649s-0.47-0.179-0.649 0l-1.712 1.712c-0.167 0.167-0.178 0.443-0.024 0.622 0.171 0.2 0.486 0.213 0.673 0.026l1.712-1.712z"></path>
<path stroke-linejoin="miter" stroke-linecap="butt" stroke-miterlimit="4" stroke-width="0.4324" d="M5.141 3.681c-0.179-0.179-0.47-0.179-0.649 0l-3.914 3.914c-0.179 0.179-0.179 0.47 0 0.648 0.177 0.177 0.472 0.177 0.649 0l3.914-3.914c0.179-0.179 0.179-0.47 0-0.649z"></path>
<path stroke-linejoin="miter" stroke-linecap="butt" stroke-miterlimit="4" stroke-width="0.4324" d="M7.098 5.638c-0.179-0.179-0.469-0.179-0.648 0l-2.446 2.446c-0.167 0.167-0.178 0.443-0.024 0.622 0.172 0.2 0.486 0.213 0.673 0.026l2.446-2.446c0.179-0.179 0.179-0.47 0-0.649z"></path>
<path stroke-linejoin="miter" stroke-linecap="butt" stroke-miterlimit="4" stroke-width="0.4324" d="M7.183 9.467c0.177 0.177 0.472 0.177 0.649 0l1.712-1.712c0.179-0.179 0.179-0.47 0-0.649s-0.469-0.179-0.649 0l-1.712 1.712c-0.179 0.179-0.179 0.47 0 0.649z"></path>
</symbol>
<symbol id="icon-pinterest-p" viewBox="0 0 20 28">
<path d="M0 9.328c0-5.766 5.281-9.328 10.625-9.328 4.906 0 9.375 3.375 9.375 8.547 0 4.859-2.484 10.25-8.016 10.25-1.313 0-2.969-0.656-3.609-1.875-1.188 4.703-1.094 5.406-3.719 9l-0.219 0.078-0.141-0.156c-0.094-0.984-0.234-1.953-0.234-2.938 0-3.187 1.469-7.797 2.188-10.891-0.391-0.797-0.5-1.766-0.5-2.641 0-1.578 1.094-3.578 2.875-3.578 1.313 0 2.016 1 2.016 2.234 0 2.031-1.375 3.938-1.375 5.906 0 1.344 1.109 2.281 2.406 2.281 3.594 0 4.703-5.187 4.703-7.953 0-3.703-2.625-5.719-6.172-5.719-4.125 0-7.313 2.969-7.313 7.156 0 2.016 1.234 3.047 1.234 3.531 0 0.406-0.297 1.844-0.812 1.844-0.078 0-0.187-0.031-0.266-0.047-2.234-0.672-3.047-3.656-3.047-5.703z"></path>
</symbol>
</defs>
</svg>
